# xmcd CD database file
# Copyright (C) 1993-1998 Ti Kan
#
# Track frame offsets:
#	150
#	11492
#	26612
#	40982
#	57752
#	75727
#	90250
#	105520
#	121317
#	136027
#	152987
#	162582
#	178997
#	191170
#	202242
#	219242
#	233282
#	244070
#	258782
#	268275
#	282665
#	293822
#
# Disc length: 4085 seconds
#
# Revision: 1
# Processed by: cddbd v1.4b41PL1 Copyright (c) Steve Scherf et al.
# Submitted via: NotifyCDPlayer(CDDB) 1.51.3
#
DISCID=380ff316
DTITLE=The Hoppers - On These Grounds and Smoke Of The Battle
DYEAR=1900
DGENRE=
TTITLE0=He's Still In Business
TTITLE1=Thread Of Hope
TTITLE2=Going Through The Trials
TTITLE3=This Is It
TTITLE4=The Empty Tomb
TTITLE5=Marching On
TTITLE6=Here I Am
TTITLE7=Living It Up
TTITLE8=Lord Don't Move That Mountain
TTITLE9=Only His Blood
TTITLE10=The Church Still Stands
TTITLE11=Mary Wrapped A Present
TTITLE12=Since I Met Jesus
TTITLE13=Freed
TTITLE14=The Foot Of The Cross
TTITLE15=There's A Beautiful Land Called Heaven
TTITLE16=The Smoke Of The Battle
TTITLE17=Crossing The Finish Line
TTITLE18=What A Way To Go
TTITLE19=He Sees Only The Blood
TTITLE20=His Name Was John
TTITLE21=Old Fashioned Meeting
EXTD=
EXTT0=
EXTT1=
EXTT2=
EXTT3=
EXTT4=
EXTT5=
EXTT6=
EXTT7=
EXTT8=
EXTT9=
EXTT10=
EXTT11=
EXTT12=
EXTT13=
EXTT14=
EXTT15=
EXTT16=
EXTT17=
EXTT18=
EXTT19=
EXTT20=
EXTT21=
PLAYORDER=
